<svg id="Layer_2" data-name="Layer 2" xmlns="http://www.w3.org/2000/svg" xmlns:xlink="http://www.w3.org/1999/xlink" viewBox="0 0 1000 1000"><defs><style>.cls-1{fill:url(#radial-gradient);}.cls-2{fill:url(#radial-gradient-2);}.cls-3{fill:#39b54a;}.cls-4{fill:#8dc63f;}.cls-5{fill:#d7df23;}.cls-6{fill:#fff200;}.cls-7{fill:url(#linear-gradient);}.cls-8{fill:url(#linear-gradient-2);}.cls-9{fill:url(#linear-gradient-4);}.cls-10{fill:url(#linear-gradient-5);}.cls-11{fill:url(#linear-gradient-6);}.cls-12{fill:url(#linear-gradient-8);}.cls-13{fill:url(#linear-gradient-9);}.cls-14{fill:url(#linear-gradient-10);}.cls-15{fill:url(#linear-gradient-12);}</style><radialGradient id="radial-gradient" cx="500" cy="566.41" r="184.09" gradientTransform="translate(0 187.9) scale(1 0.67)" gradientUnits="userSpaceOnUse"><stop offset="0" stop-color="#39b54a"/><stop offset="0.13" stop-color="#48b848"/><stop offset="0.51" stop-color="#6dc043"/><stop offset="0.81" stop-color="#85c440"/><stop offset="1" stop-color="#8dc63f"/></radialGradient><radialGradient id="radial-gradient-2" cx="498.27" cy="484.88" r="212.17" gradientTransform="translate(12.8 190.88) rotate(2.59) scale(1 0.56)" gradientUnits="userSpaceOnUse"><stop offset="0" stop-color="#8dc63f"/><stop offset="0.27" stop-color="#acd133"/><stop offset="0.54" stop-color="#c4d92a"/><stop offset="0.79" stop-color="#d2dd25"/><stop offset="1" stop-color="#d7df23"/></radialGradient><linearGradient id="linear-gradient" x1="567.7" y1="452.85" x2="567.7" y2="424.12" gradientUnits="userSpaceOnUse"><stop offset="0" stop-color="#8dc63f"/><stop offset="0.02" stop-color="#90c73e"/><stop offset="0.28" stop-color="#afd132"/><stop offset="0.54" stop-color="#c5d92a"/><stop offset="0.78" stop-color="#d2dd25"/><stop offset="1" stop-color="#d7df23"/></linearGradient><linearGradient id="linear-gradient-2" x1="635.4" y1="412.23" x2="635.4" y2="383.5" xlink:href="#linear-gradient"/><linearGradient id="linear-gradient-4" x1="500" y1="493.47" x2="500" y2="464.74" xlink:href="#linear-gradient"/><linearGradient id="linear-gradient-5" x1="500" y1="412.23" x2="500" y2="383.5" xlink:href="#linear-gradient"/><linearGradient id="linear-gradient-6" x1="567.7" y1="371.61" x2="567.7" y2="342.88" xlink:href="#linear-gradient"/><linearGradient id="linear-gradient-8" x1="432.3" y1="452.85" x2="432.3" y2="424.12" xlink:href="#linear-gradient"/><linearGradient id="linear-gradient-9" x1="432.3" y1="371.61" x2="432.3" y2="342.88" xlink:href="#linear-gradient"/><linearGradient id="linear-gradient-10" x1="500" y1="330.99" x2="500" y2="302.26" xlink:href="#linear-gradient"/><linearGradient id="linear-gradient-12" x1="364.6" y1="412.23" x2="364.6" y2="383.5" xlink:href="#linear-gradient"/></defs><polygon class="cls-1" points="700 566.4 500 686.4 300 566.4 500 446.4 700 566.4"/><polygon class="cls-2" points="700 482.13 500 602.13 300 482.13 500 362.13 700 482.13"/><polygon class="cls-3" points="300 602.13 500 722.13 700 602.13 700 566.4 500 686.4 300 566.4 300 602.13"/><polygon class="cls-4" points="300 517.87 500 637.87 700 517.87 700 482.13 500 602.13 300 482.13 300 517.87"/><polygon class="cls-5" points="300 433.6 500 553.6 700 433.6 700 397.87 500 517.87 300 397.87 300 433.6"/><polygon class="cls-6" points="700 397.87 500 517.87 300 397.87 500 277.87 700 397.87"/><ellipse class="cls-7" cx="567.7" cy="438.49" rx="23.94" ry="14.36"/><ellipse class="cls-8" cx="635.4" cy="397.86" rx="23.94" ry="14.36"/><ellipse class="cls-7" cx="567.7" cy="438.49" rx="23.94" ry="14.36"/><ellipse class="cls-9" cx="500" cy="479.11" rx="23.94" ry="14.36"/><ellipse class="cls-10" cx="500" cy="397.86" rx="23.94" ry="14.36"/><ellipse class="cls-11" cx="567.7" cy="357.24" rx="23.94" ry="14.36"/><ellipse class="cls-10" cx="500" cy="397.86" rx="23.94" ry="14.36"/><ellipse class="cls-12" cx="432.3" cy="438.49" rx="23.94" ry="14.36"/><ellipse class="cls-13" cx="432.3" cy="357.24" rx="23.94" ry="14.36"/><ellipse class="cls-14" cx="500" cy="316.62" rx="23.94" ry="14.36"/><ellipse class="cls-13" cx="432.3" cy="357.24" rx="23.94" ry="14.36"/><ellipse class="cls-15" cx="364.6" cy="397.86" rx="23.94" ry="14.36"/></svg>